<svg xmlns="http://www.w3.org/2000/svg" viewBox="0 0 20 24.83"><defs><style>.cls-1{fill:#002a5a;}</style></defs><title>pass</title><g id="Layer_2" data-name="Layer 2"><g id="Layer_1-2" data-name="Layer 1"><path class="cls-1" d="M17.82,8.21H16.32V6.32a6.33,6.33,0,0,0-12.65,0V8.21H2.16A2.16,2.16,0,0,0,0,10.36V22.66a2.16,2.16,0,0,0,2.16,2.17H17.82A2.17,2.17,0,0,0,20,22.66V10.36A2.16,2.16,0,0,0,17.82,8.21ZM6.53,6.32a3.46,3.46,0,1,1,6.92,0V8.21H6.53Zm4.63,12.83v3.13a.24.24,0,0,1-.25.23H9.41a.23.23,0,0,1-.23-.23V19.14a2.76,2.76,0,1,1,2,0Z"/></g></g></svg>